# xmcd
#
# Track frame offsets:
#	150
#	13236
#	23574
#	34172
#	46877
#	57359
#	69377
#	81076
#	93132
#	104424
#	118033
#	129092
#	142014
#	155635
#	166804
#	178595
#	190380
#	203815
#
# Disc length: 2861 seconds
#
# Revision: 0
# Processed by: cddbd v1.4PL0 Copyright (c) Steve Scherf et al.
# Submitted via: OrangeCD 4.1
#
DISCID=ee0b2b12
DTITLE=Robert Johnson - The Devil's Blues
DYEAR=1900
DGENRE=
TTITLE0=32.20 Blues
TTITLE1=Honeymoon Blues
TTITLE2=Love In Vain
TTITLE3=Come On In My Kitchen
TTITLE4=Malted Milk
TTITLE5=Cross Road Blues
TTITLE6=Me And The Devil Blues
TTITLE7=Phonograph Blues
TTITLE8=Walking Blues
TTITLE9=Sweet Home Chicago
TTITLE10=Drunken Hearted Man
TTITLE11=Preaching Blues
TTITLE12=Terraplane Blues
TTITLE13=Stones In My Passway
TTITLE14=Hellbound On My Trail
TTITLE15=I'm A Steady Rollin' Man
TTITLE16=They're Red Hot
TTITLE17=From Four Till Late
EXTD=
EXTT0=
EXTT1=
EXTT2=
EXTT3=
EXTT4=
EXTT5=
EXTT6=
EXTT7=
EXTT8=
EXTT9=
EXTT10=
EXTT11=
EXTT12=
EXTT13=
EXTT14=
EXTT15=
EXTT16=
EXTT17=
PLAYORDER=
